<svg width="49" height="49" viewBox="0 0 49 49" fill="none" xmlns="http://www.w3.org/2000/svg">
<circle cx="24.5" cy="24.5" r="24.5" fill="#ADD0DE"/>
<path d="M26.5 12H16.5C15.125 12 14 13.125 14 14.5V34.5C14 35.875 15.125 37 16.5 37H31.5C32.875 37 34 35.875 34 34.5V19.5L26.5 12ZM24 22C25.375 22 26.5 23.125 26.5 24.5C26.5 25.875 25.375 27 24 27C22.625 27 21.5 25.875 21.5 24.5C21.5 23.125 22.625 22 24 22ZM29 32H19V31.2875C19 30.275 19.6 29.375 20.525 28.975C21.6211 28.4966 22.8041 28.2497 24 28.2497C25.1959 28.2497 26.3789 28.4966 27.475 28.975C27.9279 29.1686 28.3138 29.491 28.585 29.9021C28.8561 30.3132 29.0004 30.795 29 31.2875V32Z" fill="#15303B"/>
</svg>
