<svg width="49" height="49" viewBox="0 0 49 49" fill="none" xmlns="http://www.w3.org/2000/svg">
<circle cx="24.5" cy="24.5" r="24.5" fill="#ADD0DE"/>
<path d="M36.5795 34.6424C36.0991 34.0509 30.2781 31.2349 29.2219 30.7037C28.1712 30.1818 27.752 28.7356 27.752 28.7356C27.752 28.7356 27.279 29.0626 27.279 28.1441C27.279 27.2243 27.752 28.7356 28.225 25.1889C28.225 25.1889 29.5372 24.7285 29.2766 20.9209H28.9613C28.9613 20.9209 29.7495 16.85 28.9613 15.4721C28.1702 14.0943 27.8605 13.1757 26.1236 12.517C24.3894 11.8594 25.02 11.9904 23.7607 12.0577C22.4994 12.1238 21.4497 12.9774 21.4497 13.4355C21.4497 13.4355 20.6614 13.5016 20.348 13.896C20.0327 14.2903 19.5078 16.1274 19.5078 16.5867C19.5078 17.046 19.7702 20.1357 20.0327 20.7898L19.7202 20.9174C19.4577 24.7261 20.7699 25.1877 20.7699 25.1877C21.2429 28.7344 21.7158 27.2232 21.7158 28.1429C21.7158 29.0615 21.2429 28.7344 21.2429 28.7344C21.2429 28.7344 20.8228 30.1795 19.773 30.7026C18.7232 31.228 12.8957 34.0509 12.4219 34.6412C11.9489 35.2443 12.0018 38 12.0018 38H23.1634L23.9777 33.9871L23.2543 33.0825L24.4998 31.5225L25.7452 33.0813L25.0219 33.9859L25.8361 37.9988H36.9977C36.9977 37.9988 37.0562 35.2408 36.5777 34.6389L36.5795 34.6424Z" fill="black"/>
</svg>
