<svg width="49" height="49" viewBox="0 0 49 49" fill="none" xmlns="http://www.w3.org/2000/svg">
<circle cx="24.5" cy="24.5" r="24.5" fill="#ADD0DE"/>
<path d="M36.375 27.75H35.75V23.5273C35.75 23.0312 35.5508 22.5547 35.1992 22.2031L31.2969 18.3008C30.9453 17.9492 30.4688 17.75 29.9727 17.75H28.25V15.875C28.25 14.8398 27.4102 14 26.375 14H16.375C15.3398 14 14.5 14.8398 14.5 15.875V17.75H12.3125C12.1406 17.75 12 17.8906 12 18.0625V18.6875C12 18.8594 12.1406 19 12.3125 19H22.9375C23.1094 19 23.25 19.1406 23.25 19.3125V19.9375C23.25 20.1094 23.1094 20.25 22.9375 20.25H13.5625C13.3906 20.25 13.25 20.3906 13.25 20.5625V21.1875C13.25 21.3594 13.3906 21.5 13.5625 21.5H21.6875C21.8594 21.5 22 21.6406 22 21.8125V22.4375C22 22.6094 21.8594 22.75 21.6875 22.75H12.3125C12.1406 22.75 12 22.8906 12 23.0625V23.6875C12 23.8594 12.1406 24 12.3125 24H20.4375C20.6094 24 20.75 24.1406 20.75 24.3125V24.9375C20.75 25.1094 20.6094 25.25 20.4375 25.25H14.5V30.25C14.5 32.3203 16.1797 34 18.25 34C20.3203 34 22 32.3203 22 30.25H27C27 32.3203 28.6797 34 30.75 34C32.8203 34 34.5 32.3203 34.5 30.25H36.375C36.7188 30.25 37 29.9688 37 29.625V28.375C37 28.0312 36.7188 27.75 36.375 27.75ZM18.25 32.125C17.2148 32.125 16.375 31.2852 16.375 30.25C16.375 29.2148 17.2148 28.375 18.25 28.375C19.2852 28.375 20.125 29.2148 20.125 30.25C20.125 31.2852 19.2852 32.125 18.25 32.125ZM30.75 32.125C29.7148 32.125 28.875 31.2852 28.875 30.25C28.875 29.2148 29.7148 28.375 30.75 28.375C31.7852 28.375 32.625 29.2148 32.625 30.25C32.625 31.2852 31.7852 32.125 30.75 32.125ZM33.875 24H28.25V19.625H29.9727L33.875 23.5273V24Z" fill="black"/>
</svg>
