<svg width="49" height="49" viewBox="0 0 49 49" fill="none" xmlns="http://www.w3.org/2000/svg">
<circle cx="24.5" cy="24.5" r="24.5" fill="#ADD0DE"/>
<g clip-path="url(#clip0_814_3339)">
<path fill-rule="evenodd" clip-rule="evenodd" d="M22.7467 12.7268L20.8633 14.6084C20.7113 14.7606 20.5051 14.8463 20.29 14.8468H17.3267C15.9567 14.8468 14.8467 15.9568 14.8467 17.3268V20.2901C14.8462 20.5057 14.7606 20.7124 14.6083 20.8651L12.725 22.7468C12.2601 23.2118 11.9989 23.8425 11.9989 24.5001C11.9989 25.1577 12.2601 25.7884 12.725 26.2534L14.6083 28.1368C14.7605 28.2888 14.8462 28.495 14.8467 28.7101V31.6734C14.8467 33.0434 15.9567 34.1534 17.3267 34.1534H20.29C20.5056 34.1539 20.7123 34.2395 20.865 34.3918L22.7467 36.2751C23.2117 36.74 23.8424 37.0012 24.5 37.0012C25.1576 37.0012 25.7883 36.74 26.2533 36.2751L28.1367 34.3918C28.2887 34.2396 28.4949 34.1539 28.71 34.1534H31.6733C33.0433 34.1534 34.1533 33.0434 34.1533 31.6734V28.7101C34.1538 28.4945 34.2394 28.2878 34.3917 28.1351L36.275 26.2534C36.7399 25.7884 37.0011 25.1577 37.0011 24.5001C37.0011 23.8425 36.7399 23.2118 36.275 22.7468L34.3917 20.8634C34.2395 20.7114 34.1538 20.5052 34.1533 20.2901V17.3268C34.1533 15.9568 33.0433 14.8468 31.6733 14.8468H28.71C28.4943 14.8467 28.2875 14.761 28.135 14.6084L26.2533 12.7251C25.7883 12.2602 25.1576 11.999 24.5 11.999C23.8424 11.999 23.2117 12.2602 22.7467 12.7251V12.7268ZM19.7433 28.0768L28.0767 19.7434L29.2567 20.9234L20.9233 29.2568L19.7433 28.0768ZM20.3333 20.3334V22.0001H22V20.3334H20.3333ZM27 28.6668H28.6667V27.0001H27V28.6668Z" fill="#15303B"/>
</g>
<defs>
<clipPath id="clip0_814_3339">
<rect width="25" height="25" fill="white" transform="translate(12 12)"/>
</clipPath>
</defs>
</svg>
