<svg width="49" height="49" viewBox="0 0 49 49" fill="none" xmlns="http://www.w3.org/2000/svg">
<circle cx="24.5" cy="24.5" r="24.5" fill="#ADD0DE"/>
<path d="M28.25 25H20.75V27.5H28.25V25ZM31.7266 19.1016L27.9023 15.2734C27.7266 15.0977 27.4883 15 27.2383 15H27V20H32V19.7617C32 19.5156 31.9023 19.2773 31.7266 19.1016ZM25.75 20.3125V15H17.9375C17.418 15 17 15.418 17 15.9375V34.0625C17 34.582 17.418 35 17.9375 35H31.0625C31.582 35 32 34.582 32 34.0625V21.25H26.6875C26.1719 21.25 25.75 20.8281 25.75 20.3125ZM19.5 17.8125C19.5 17.6398 19.6398 17.5 19.8125 17.5H22.9375C23.1102 17.5 23.25 17.6398 23.25 17.8125V18.4375C23.25 18.6102 23.1102 18.75 22.9375 18.75H19.8125C19.6398 18.75 19.5 18.6102 19.5 18.4375V17.8125ZM19.5 20.3125C19.5 20.1398 19.6398 20 19.8125 20H22.9375C23.1102 20 23.25 20.1398 23.25 20.3125V20.9375C23.25 21.1102 23.1102 21.25 22.9375 21.25H19.8125C19.6398 21.25 19.5 21.1102 19.5 20.9375V20.3125ZM29.5 32.1875C29.5 32.3602 29.3602 32.5 29.1875 32.5H26.0625C25.8898 32.5 25.75 32.3602 25.75 32.1875V31.5625C25.75 31.3898 25.8898 31.25 26.0625 31.25H29.1875C29.3602 31.25 29.5 31.3898 29.5 31.5625V32.1875ZM29.5 24.375V28.125C29.5 28.4703 29.2203 28.75 28.875 28.75H20.125C19.7797 28.75 19.5 28.4703 19.5 28.125V24.375C19.5 24.0297 19.7797 23.75 20.125 23.75H28.875C29.2203 23.75 29.5 24.0297 29.5 24.375Z" fill="#15303B"/>
</svg>
