<svg width="49" height="49" viewBox="0 0 49 49" fill="none" xmlns="http://www.w3.org/2000/svg">
<circle cx="24.5" cy="24.5" r="24.5" fill="#ADD0DE"/>
<path d="M24.5 36.806C24.9375 36.7959 25.3572 36.6315 25.6851 36.3417C26.013 36.0519 26.2279 35.6556 26.2917 35.2227H22.6389C22.7045 35.6673 22.9294 36.073 23.2717 36.3643C23.6141 36.6555 24.0506 36.8125 24.5 36.806V36.806Z" fill="#15303B"/>
<path d="M34.8125 32.5345L34.5764 32.3262C33.9066 31.7294 33.3203 31.045 32.8333 30.2915C32.3015 29.2516 31.9828 28.1159 31.8958 26.9512V23.5206C31.893 23.1039 31.8559 22.6882 31.7847 22.2776C30.6084 22.0358 29.5518 21.3949 28.7938 20.4635C28.0357 19.5321 27.6228 18.3673 27.625 17.1664V16.7289C26.8999 16.3721 26.121 16.1375 25.3194 16.0345V15.1595C25.3194 14.9136 25.2218 14.6778 25.0479 14.504C24.874 14.3301 24.6382 14.2324 24.3924 14.2324C24.1465 14.2324 23.9107 14.3301 23.7368 14.504C23.563 14.6778 23.4653 14.9136 23.4653 15.1595V16.0692C21.6706 16.3224 20.0282 17.2163 18.8411 18.5858C17.6541 19.9554 17.0026 21.7082 17.0069 23.5206V26.9512C16.92 28.1159 16.6012 29.2516 16.0694 30.2915C15.5909 31.0431 15.014 31.7274 14.3542 32.3262L14.1181 32.5345V34.4928H34.8125V32.5345Z" fill="#15303B"/>
<path d="M32.8333 20.6388C34.751 20.6388 36.3056 19.0842 36.3056 17.1666C36.3056 15.2489 34.751 13.6943 32.8333 13.6943C30.9157 13.6943 29.3611 15.2489 29.3611 17.1666C29.3611 19.0842 30.9157 20.6388 32.8333 20.6388Z" fill="#15303B"/>
</svg>
