<svg width="49" height="49" viewBox="0 0 49 49" fill="none" xmlns="http://www.w3.org/2000/svg">
<circle cx="24.5" cy="24.5" r="24.5" fill="#ADD0DE"/>
<path d="M32 21L26 15H18C17.4696 15 16.9609 15.2107 16.5858 15.5858C16.2107 15.9609 16 16.4696 16 17V33C16 33.5304 16.2107 34.0391 16.5858 34.4142C16.9609 34.7893 17.4696 35 18 35H30C30.5304 35 31.0391 34.7893 31.4142 34.4142C31.7893 34.0391 32 33.5304 32 33V21ZM21 32H19V23H21V32ZM25 32H23V26H25V32ZM29 32H27V29H29V32ZM26 22H25V17L30 22H26Z" fill="#15303B"/>
</svg>
