<?xml version="1.0" standalone="no"?>
<!DOCTYPE svg PUBLIC "-//W3C//DTD SVG 20010904//EN"
 "http://www.w3.org/TR/2001/REC-SVG-20010904/DTD/svg10.dtd">
<svg version="1.0" xmlns="http://www.w3.org/2000/svg"
 width="1231.000000pt" height="871.000000pt" viewBox="0 0 1231.000000 871.000000"
 preserveAspectRatio="xMidYMid meet">

<g transform="translate(0.000000,871.000000) scale(0.100000,-0.100000)"
fill="#000000" stroke="none">
<path d="M5780 8565 c-170 -36 -186 -47 -22 -15 56 11 115 20 130 19 l27 -1
-30 -14 -30 -15 40 7 c22 3 43 8 47 10 10 7 10 44 1 43 -5 -1 -78 -16 -163
-34z"/>
<path d="M5828 8533 c7 -3 16 -2 19 1 4 3 -2 6 -13 5 -11 0 -14 -3 -6 -6z"/>
<path d="M5588 8523 c6 -2 18 -2 25 0 6 3 1 5 -13 5 -14 0 -19 -2 -12 -5z"/>
<path d="M5538 8513 c6 -2 18 -2 25 0 6 3 1 5 -13 5 -14 0 -19 -2 -12 -5z"/>
<path d="M5385 8489 c-49 -10 -114 -24 -143 -30 -30 -6 -52 -13 -50 -15 3 -2
78 11 169 30 90 19 153 34 139 34 -14 0 -65 -9 -115 -19z"/>
<path d="M6216 8441 c-4 -6 -12 -8 -19 -5 -7 2 -316 -57 -687 -131 -370 -74
-683 -135 -694 -134 -21 0 -21 0 -1 9 11 5 274 60 584 122 311 61 561 113 555
115 -5 2 -265 -48 -578 -111 -420 -84 -573 -118 -582 -130 -8 -12 -107 -36
-355 -85 -430 -86 -416 -84 -404 -72 6 6 174 44 375 85 201 41 358 75 350 75
-9 1 -184 -33 -390 -74 -206 -41 -376 -75 -378 -75 -3 0 1 -7 8 -15 10 -13 7
-17 -23 -30 -47 -20 -54 -19 -62 5 -7 23 -16 22 -125 -15 -54 -18 -65 -26 -68
-46 -2 -16 6 -33 23 -49 l27 -25 -8 30 c-15 59 -12 67 34 83 24 8 46 12 49 9
3 -3 9 -48 13 -99 5 -54 27 -166 54 -268 25 -96 117 -452 206 -790 88 -338
283 -1083 431 -1655 149 -572 320 -1227 379 -1455 60 -228 210 -806 335 -1285
441 -1693 455 -1745 479 -1783 13 -20 27 -47 31 -59 5 -19 1 -23 -29 -28 -54
-11 -69 -4 -81 38 -12 43 -25 39 -25 -7 0 -55 9 -60 101 -53 89 5 156 25 354
102 66 26 147 57 180 70 115 43 361 137 445 170 47 19 139 54 205 79 66 25
183 69 260 99 377 146 442 171 473 182 33 12 59 31 51 39 -2 2 -211 -76 -464
-174 -828 -318 -968 -371 -973 -365 -3 3 -1 9 4 14 8 9 1063 416 1596 616 65
25 128 50 140 57 13 7 25 14 26 15 2 1 -2 26 -9 57 -9 43 -15 53 -23 42 -8
-11 -1379 -539 -2031 -782 -112 -42 -154 -44 -196 -6 -35 31 15 -151 -549
2012 -142 547 -496 1902 -785 3010 -289 1108 -529 2038 -532 2066 -9 80 13 91
272 143 116 23 622 125 1125 227 503 101 920 182 926 180 9 -3 10 3 3 26 -10
37 -15 43 -23 29z m14 -7720 c0 -10 6 -7 -154 -67 -112 -43 -142 -50 -114 -27
16 13 238 102 256 103 6 0 12 -4 12 -9z m-296 -115 c-6 -14 -54 -36 -80 -36
-24 0 -16 38 9 43 51 10 76 7 71 -7z"/>
<path d="M5128 8433 c6 -2 18 -2 25 0 6 3 1 5 -13 5 -14 0 -19 -2 -12 -5z"/>
<path d="M4785 8370 c-154 -32 -271 -58 -260 -59 11 0 148 26 305 58 157 33
274 59 260 59 -14 0 -151 -26 -305 -58z"/>
<path d="M5988 8423 c7 -3 16 -2 19 1 4 3 -2 6 -13 5 -11 0 -14 -3 -6 -6z"/>
<path d="M5118 8393 c7 -3 16 -2 19 1 4 3 -2 6 -13 5 -11 0 -14 -3 -6 -6z"/>
<path d="M5068 8383 c7 -3 16 -2 19 1 4 3 -2 6 -13 5 -11 0 -14 -3 -6 -6z"/>
<path d="M5018 8373 c7 -3 16 -2 19 1 4 3 -2 6 -13 5 -11 0 -14 -3 -6 -6z"/>
<path d="M4968 8363 c7 -3 16 -2 19 1 4 3 -2 6 -13 5 -11 0 -14 -3 -6 -6z"/>
<path d="M6117 8318 c-35 -9 -38 -13 -32 -37 9 -34 8 -34 52 -27 57 10 66 18
54 49 -11 29 -16 30 -74 15z"/>
<path d="M4468 8303 c6 -2 18 -2 25 0 6 3 1 5 -13 5 -14 0 -19 -2 -12 -5z"/>
<path d="M5954 8296 c-10 -8 -16 -18 -12 -22 4 -4 14 -1 23 6 9 7 25 10 42 5
23 -5 25 -4 14 9 -17 20 -41 20 -67 2z"/>
<path d="M4418 8293 c6 -2 18 -2 25 0 6 3 1 5 -13 5 -14 0 -19 -2 -12 -5z"/>
<path d="M4150 8245 c-113 -24 -196 -43 -185 -43 11 -1 115 19 230 42 116 24
199 44 185 44 -14 0 -117 -19 -230 -43z"/>
<path d="M5886 8260 c10 -52 26 -74 20 -26 -3 22 -10 44 -16 50 -7 7 -8 0 -4
-24z"/>
<path d="M4458 8263 c7 -3 16 -2 19 1 4 3 -2 6 -13 5 -11 0 -14 -3 -6 -6z"/>
<path d="M5965 8260 c-4 -6 5 -10 19 -10 14 0 26 5 26 10 0 6 -9 10 -19 10
-11 0 -23 -4 -26 -10z"/>
<path d="M4408 8253 c7 -3 16 -2 19 1 4 3 -2 6 -13 5 -11 0 -14 -3 -6 -6z"/>
<path d="M5862 8245 c-1 -28 13 -61 20 -49 3 5 0 23 -7 39 -10 23 -13 25 -13
10z"/>
<path d="M4358 8243 c7 -3 16 -2 19 1 4 3 -2 6 -13 5 -11 0 -14 -3 -6 -6z"/>
<path d="M5990 8230 c0 -5 5 -10 11 -10 5 0 7 5 4 10 -3 6 -8 10 -11 10 -2 0
-4 -4 -4 -10z"/>
<path d="M5830 8223 c0 -5 5 -15 10 -23 8 -12 10 -11 10 8 0 12 -4 22 -10 22
-5 0 -10 -3 -10 -7z"/>
<path d="M3492 8188 c35 -30 37 -36 31 -72 -6 -37 -5 -38 16 -27 12 7 26 23
31 37 6 16 17 24 32 24 39 0 68 -12 68 -26 0 -28 51 -14 63 18 3 9 18 18 34
20 15 2 -15 3 -67 3 -75 0 -104 4 -140 21 -25 11 -58 24 -75 27 l-30 7 37 -32z"/>
<path d="M5810 8194 c0 -8 5 -12 10 -9 6 4 8 11 5 16 -9 14 -15 11 -15 -7z"/>
<path d="M3908 8193 c6 -2 18 -2 25 0 6 3 1 5 -13 5 -14 0 -19 -2 -12 -5z"/>
<path d="M3858 8183 c6 -2 18 -2 25 0 6 3 1 5 -13 5 -14 0 -19 -2 -12 -5z"/>
<path d="M3808 8173 c6 -2 18 -2 25 0 6 3 1 5 -13 5 -14 0 -19 -2 -12 -5z"/>
<path d="M3898 8153 c7 -3 16 -2 19 1 4 3 -2 6 -13 5 -11 0 -14 -3 -6 -6z"/>
<path d="M3848 8143 c7 -3 16 -2 19 1 4 3 -2 6 -13 5 -11 0 -14 -3 -6 -6z"/>
<path d="M3798 8133 c7 -3 16 -2 19 1 4 3 -2 6 -13 5 -11 0 -14 -3 -6 -6z"/>
<path d="M3421 8127 c-1 -9 -166 -901 -286 -1547 -35 -190 -91 -491 -124 -670
-90 -484 -106 -571 -452 -2439 -279 -1507 -345 -1879 -300 -1684 10 43 196
1048 451 2428 49 264 125 676 169 915 170 913 269 1448 347 1870 24 135 49
265 54 290 5 25 23 122 40 215 17 94 35 178 40 187 6 10 10 31 10 48 0 17 14
107 31 201 17 93 28 175 25 182 -2 7 -5 8 -5 4z"/>
<path d="M3748 8123 c7 -3 16 -2 19 1 4 3 -2 6 -13 5 -11 0 -14 -3 -6 -6z"/>
<path d="M5140 8100 c-24 -24 -25 -41 -4 -86 26 -54 87 -60 100 -9 8 33 -2 71
-26 95 -25 25 -45 25 -70 0z"/>
<path d="M5674 7768 c-4 -6 2 -19 14 -29 26 -21 29 -34 5 -24 -14 5 -15 3 -6
-6 14 -15 43 -5 43 15 0 8 -9 18 -20 21 -23 7 -26 21 -7 28 7 3 6 6 -5 6 -9 1
-20 -4 -24 -11z"/>
<path d="M5518 7748 c-10 -10 -18 -26 -18 -35 -1 -17 -1 -17 -14 0 -24 31 -27
18 -6 -24 12 -23 19 -47 16 -55 -3 -8 -1 -14 4 -14 6 0 10 24 10 54 0 66 14
79 31 31 7 -19 17 -35 21 -35 11 0 10 18 -2 25 -5 3 -10 19 -10 35 0 36 -10
42 -32 18z"/>
<path d="M5614 7755 c-9 -22 3 -62 20 -68 8 -3 20 1 28 10 11 14 10 15 -10 9
-12 -4 -22 -3 -22 3 0 5 -3 16 -6 25 -4 11 -1 16 10 16 9 0 16 5 16 10 0 16
-30 12 -36 -5z"/>
<path d="M5437 7708 c16 -55 23 -70 23 -49 0 26 -23 101 -31 101 -4 0 -1 -24
8 -52z"/>
<path d="M5576 7735 c10 -46 26 -67 18 -25 -3 19 -10 40 -16 45 -6 6 -7 -1 -2
-20z"/>
<path d="M3382 7708 c2 -13 7 -23 12 -23 5 0 11 10 12 23 3 15 -1 22 -12 22
-10 0 -14 -7 -12 -22z"/>
<path d="M5230 7658 c0 -60 0 -61 20 -43 16 15 22 15 35 5 8 -7 15 -10 15 -6
0 12 -55 106 -62 106 -5 0 -8 -28 -8 -62z m27 -10 c-3 -8 -6 -5 -6 6 -1 11 2
17 5 13 3 -3 4 -12 1 -19z"/>
<path d="M5377 7713 c-12 -12 -7 -22 8 -17 8 4 15 1 15 -5 0 -6 -5 -11 -11
-11 -13 0 -8 -42 6 -47 6 -1 16 1 24 6 11 7 11 15 1 45 -11 34 -28 45 -43 29z
m33 -53 c0 -5 -4 -10 -10 -10 -5 0 -10 5 -10 10 0 6 5 10 10 10 6 0 10 -4 10
-10z"/>
<path d="M5311 7701 c-14 -9 -5 -81 11 -81 5 0 6 10 3 23 -11 33 -11 35 0 37
6 1 15 -13 22 -32 8 -21 12 -26 12 -13 1 52 -21 82 -48 66z"/>
<path d="M5031 7666 c-1 -10 -9 -24 -18 -31 -14 -10 -15 -19 -7 -46 10 -34 29
-46 51 -31 9 6 8 22 -6 67 -11 33 -20 51 -20 41z m14 -67 c4 -11 4 -23 2 -26
-9 -8 -24 5 -30 27 -7 27 20 27 28 -1z"/>
<path d="M5145 7660 c-7 -12 4 -80 14 -80 3 0 6 20 6 45 0 43 -7 56 -20 35z"/>
<path d="M5080 7644 c-19 -22 -1 -68 28 -72 29 -4 29 15 0 21 l-23 4 23 8 c26
9 28 18 6 39 -19 20 -19 20 -34 0z m30 -14 c0 -5 -4 -10 -10 -10 -5 0 -10 5
-10 10 0 6 5 10 10 10 6 0 10 -4 10 -10z"/>
<path d="M4880 7640 c-16 -10 -16 -61 0 -90 15 -29 54 -23 58 8 4 29 -15 79
-32 85 -7 3 -19 1 -26 -3z m48 -74 c-2 -12 -9 -21 -17 -21 -18 0 -35 49 -26
73 6 15 9 14 26 -7 11 -13 19 -34 17 -45z"/>
<path d="M4956 7621 c-3 -5 0 -26 8 -47 l14 -39 -2 47 c-1 46 -8 59 -20 39z"/>
<path d="M3772 7399 c-40 -224 -46 -269 -36 -269 5 0 9 -62 8 -138 -1 -75 5
-164 11 -197 7 -33 16 -97 20 -142 7 -81 7 -83 -23 -120 -80 -102 -110 -205
-85 -298 21 -81 41 -100 102 -100 45 0 48 -1 45 -25 -1 -13 -11 -30 -20 -37
-14 -10 -14 -13 -3 -14 8 0 -7 -10 -33 -22 l-47 -22 37 -75 c30 -59 41 -74 57
-72 14 3 17 1 9 -10 -19 -24 -2 -108 21 -108 7 0 15 -6 18 -12 3 -8 21 3 47
31 30 30 39 45 31 51 -9 5 -8 9 4 14 24 9 32 7 15 -4 -13 -8 -12 -10 3 -10 9
0 17 7 17 15 0 9 7 18 15 21 9 4 13 15 11 28 -2 11 -1 15 1 8 3 -7 8 -10 13
-7 5 3 6 13 3 22 -5 12 -2 15 10 10 13 -5 17 0 17 21 0 19 3 23 9 13 11 -18
23 2 14 25 -4 12 -3 15 5 10 7 -4 12 -2 12 3 0 6 7 11 15 11 8 0 15 6 15 13 1
6 12 26 26 42 15 17 23 24 19 16 -6 -9 -4 -12 4 -7 6 4 9 11 6 16 -3 5 -1 11
5 15 14 8 13 45 -1 45 -8 0 -8 4 -1 13 9 10 -6 81 -58 278 -39 145 -80 305
-91 354 -33 141 -99 388 -109 410 -5 11 -27 90 -49 176 -23 86 -44 167 -49
179 -6 16 -17 -24 -40 -151z"/>
<path d="M4136 7473 l-14 -48 36 -37 c20 -21 38 -35 41 -33 2 3 -8 18 -24 35
l-28 29 42 7 c37 6 59 19 49 29 -2 2 -23 -1 -47 -6 -24 -5 -46 -8 -48 -5 -2 2
3 18 11 35 19 35 19 41 6 41 -5 0 -16 -21 -24 -47z"/>
<path d="M5970 7384 c-129 -35 -284 -75 -345 -90 -60 -15 -111 -28 -113 -29
-1 -1 8 -47 22 -102 35 -146 16 -222 -61 -242 -173 -45 -199 -45 -243 1 -33
35 -51 74 -76 167 -13 46 -25 85 -27 87 -2 2 -55 -7 -118 -21 -63 -13 -231
-45 -374 -70 -143 -26 -270 -53 -282 -61 -58 -37 -59 -105 -5 -309 91 -339
137 -515 213 -810 171 -663 180 -689 248 -729 38 -22 11 -28 286 69 751 265
727 258 1275 351 301 51 318 55 359 93 46 43 48 82 11 223 -17 68 -49 191 -70
273 -21 83 -70 272 -109 420 -38 149 -95 369 -126 490 -31 121 -66 240 -78
264 -30 60 -70 91 -115 90 -20 0 -143 -30 -272 -65z m-238 -781 c-6 -2 -9 -10
-6 -15 4 -7 2 -8 -4 -4 -18 11 -14 26 6 25 10 0 12 -3 4 -6z m-48 -10 c-5 -5
-12 -12 -16 -18 -4 -6 -8 -2 -8 8 0 9 7 17 17 17 9 0 12 -3 7 -7z m-46 -15 c7
-7 12 -19 12 -27 -1 -12 -4 -10 -13 5 -7 12 -18 19 -26 16 -8 -3 -11 0 -7 7 9
14 19 14 34 -1z m-84 -16 c2 -4 -4 -8 -14 -8 -10 0 -16 4 -14 8 3 4 9 8 14 8
5 0 11 -4 14 -8z m154 -28 c-1 -9 -10 -19 -18 -21 -13 -4 -13 -3 0 6 12 9 12
11 -2 16 -14 5 -15 10 -5 20 15 16 30 4 25 -21z m-305 19 c-16 -6 -17 -33 -2
-33 5 0 7 -4 4 -10 -10 -16 -22 -11 -28 12 -7 27 -1 38 21 37 11 0 12 -3 5 -6z
m68 -30 c12 -31 -3 -55 -23 -35 -9 9 -9 15 0 24 15 15 16 32 2 23 -5 -3 -10
-1 -10 4 0 21 21 10 31 -16z m33 -9 c3 -8 2 -12 -4 -9 -6 3 -10 10 -10 16 0
14 7 11 14 -7z m-254 -20 c0 -8 -4 -12 -10 -9 -5 3 -10 10 -10 16 0 5 5 9 10
9 6 0 10 -7 10 -16z m61 -11 c12 -31 -3 -55 -23 -35 -8 8 -8 15 0 25 9 10 9
16 0 25 -9 9 -9 12 0 12 7 0 17 -12 23 -27z m-156 7 c-3 -5 -13 -10 -21 -10
-8 0 -12 5 -9 10 3 6 13 10 21 10 8 0 12 -4 9 -10z m63 -12 c7 -7 12 -17 12
-22 0 -6 -5 -3 -11 7 -6 9 -14 15 -20 12 -5 -4 -9 -1 -9 4 0 14 13 14 28 -1z
m212 -4 c0 -2 -9 -4 -20 -4 -11 0 -20 4 -20 9 0 5 9 7 20 4 11 -3 20 -7 20 -9z
m-273 -46 c-3 -8 -6 -5 -6 6 -1 11 2 17 5 13 3 -3 4 -12 1 -19z m63 -2 c-7 -7
-13 -7 -20 0 -6 6 -3 10 10 10 13 0 16 -4 10 -10z m317 -168 c-3 -7 -5 -2 -5
12 0 14 2 19 5 13 2 -7 2 -19 0 -25z m-240 -50 c-3 -8 -6 -5 -6 6 -1 11 2 17
5 13 3 -3 4 -12 1 -19z m587 -20 c-3 -4 -12 -8 -20 -8 -8 0 -14 4 -14 8 0 4 9
8 19 8 11 0 17 -4 15 -8z m-324 -22 c0 -3 -4 -8 -10 -11 -5 -3 -10 -1 -10 4 0
6 5 11 10 11 6 0 10 -2 10 -4z m77 -42 c-3 -3 -12 -4 -19 -1 -8 3 -5 6 6 6 11
1 17 -2 13 -5z m-317 -24 c0 -5 -4 -10 -10 -10 -5 0 -10 5 -10 10 0 6 5 10 10
10 6 0 10 -4 10 -10z m727 -94 c-3 -8 1 -17 9 -20 21 -8 14 -51 -8 -51 -9 0
-20 -4 -24 -8 -4 -4 -16 -7 -26 -7 -10 0 -18 -4 -18 -8 0 -4 -12 -9 -26 -10
-25 -2 -26 0 -20 33 6 30 4 34 -10 28 -12 -4 -15 -2 -12 8 9 27 33 15 36 -18
4 -37 7 -38 41 -19 15 8 19 16 13 20 -6 4 -9 13 -5 21 4 11 1 13 -13 8 -12 -4
-15 -3 -10 5 12 20 34 13 40 -13 6 -24 46 -37 46 -15 0 6 -6 10 -14 10 -8 0
-18 5 -21 10 -9 14 1 40 16 40 6 0 9 -6 6 -14z m63 -8 c0 -10 5 -18 10 -18 19
0 10 -26 -10 -27 -14 -1 -20 4 -20 18 0 10 -4 19 -10 19 -5 0 -10 6 -10 14 0
9 9 14 20 13 12 -1 20 -8 20 -19z m85 4 c0 -18 -20 -15 -23 4 -3 10 1 15 10
12 7 -3 13 -10 13 -16z m-1085 -7 c-7 -8 -18 -15 -24 -15 -6 0 -2 7 8 15 25
19 32 19 16 0z m680 -79 c0 -12 5 -27 12 -34 9 -9 9 -12 0 -12 -14 0 -43 60
-35 73 8 13 23 -3 23 -27z m-69 22 c8 -32 8 -91 0 -83 -15 16 -25 85 -12 85 6
0 11 -1 12 -2z m44 -55 c4 -14 2 -23 -4 -23 -6 0 -11 6 -11 14 0 8 -3 23 -6
33 -5 12 -4 15 3 8 6 -5 14 -20 18 -32z m-73 2 c8 -18 8 -28 -1 -39 -18 -21
-41 -8 -41 23 0 47 24 56 42 16z m-104 -17 c2 -16 -1 -28 -7 -28 -6 0 -11 -7
-11 -15 0 -30 -18 -14 -28 25 -11 44 -7 52 23 48 13 -2 21 -12 23 -30z m38 -8
c2 -42 -11 -46 -18 -6 -4 19 6 46 17 46 0 0 1 -18 1 -40z m-176 -64 c0 -34
-17 -4 -23 39 l-6 40 14 -30 c8 -16 14 -39 15 -49z m41 -29 c-8 -8 -11 -6 -11
6 0 10 -7 31 -15 47 -9 17 -11 30 -5 30 5 0 10 -4 10 -10 0 -18 20 -11 22 8 1
9 3 -3 5 -27 3 -24 -1 -49 -6 -54z m-111 72 c0 -6 7 -9 15 -5 11 4 15 -1 15
-17 0 -13 5 -28 11 -34 7 -7 3 -10 -15 -10 -17 0 -27 6 -32 21 -3 11 -8 29
-10 39 -3 9 -1 17 5 17 6 0 11 -5 11 -11z m-23 -36 c4 -9 1 -19 -5 -21 -7 -2
-12 -8 -12 -13 0 -4 8 -6 18 -2 13 5 15 3 5 -7 -23 -25 -63 11 -49 45 7 20 35
19 43 -2z m-130 -15 c-3 12 -2 22 3 22 10 0 18 -80 8 -86 -4 -2 -11 4 -17 13
-9 16 -10 16 -11 1 0 -34 -20 -28 -40 13 -21 46 -19 65 5 33 14 -18 14 -18 15
6 l0 25 21 -25 c20 -24 21 -24 16 -2z m69 7 c4 -8 0 -23 -7 -32 -12 -15 -12
-16 4 -10 18 7 24 -8 6 -18 -12 -8 -49 22 -49 40 0 13 20 35 32 35 5 0 11 -7
14 -15z"/>
<path d="M5450 6500 c0 -5 5 -10 10 -10 6 0 10 5 10 10 0 6 -4 10 -10 10 -5 0
-10 -4 -10 -10z"/>
<path d="M5290 6460 c0 -5 5 -10 10 -10 6 0 10 5 10 10 0 6 -4 10 -10 10 -5 0
-10 -4 -10 -10z"/>
<path d="M5660 5876 c0 -8 5 -18 10 -21 6 -3 10 3 10 14 0 12 -4 21 -10 21 -5
0 -10 -6 -10 -14z"/>
<path d="M5555 5870 c3 -5 8 -10 11 -10 2 0 4 5 4 10 0 6 -5 10 -11 10 -5 0
-7 -4 -4 -10z"/>
<path d="M5245 7330 c-25 -27 -29 -37 -28 -86 1 -44 -1 -53 -10 -41 -7 8 -20
17 -29 20 -22 8 -24 -21 -4 -49 12 -15 17 -17 27 -6 20 19 29 14 29 -16 0 -16
3 -32 7 -36 4 -4 13 -25 19 -46 10 -35 10 -39 -8 -43 -32 -9 -18 -42 16 -40
23 2 26 0 16 -12 -10 -12 -7 -17 12 -26 38 -17 170 18 183 49 5 12 13 22 17
22 5 0 8 7 8 16 0 13 -3 14 -13 5 -10 -8 -17 -7 -26 2 -9 9 -13 7 -17 -9 -7
-25 -45 -46 -63 -34 -9 5 -11 21 -6 54 7 43 6 47 -11 46 -35 -4 -42 0 -64 31
-21 29 -22 31 -4 44 23 16 37 9 31 -16 -8 -31 18 -44 42 -20 31 31 27 51 -9
51 -23 0 -33 6 -40 25 -5 14 -19 29 -30 33 -20 8 -20 8 5 32 l27 25 -7 -26
c-9 -36 21 -62 40 -35 13 16 15 15 34 -23 12 -22 21 -47 21 -56 0 -8 5 -15 10
-15 6 0 10 7 10 15 0 8 8 15 18 15 15 0 19 -8 20 -41 2 -45 18 -83 33 -74 14
9 11 52 -8 114 -21 67 -42 88 -61 63 -11 -15 -15 -14 -37 13 -13 17 -30 41
-37 55 -30 58 -70 65 -113 20z"/>
<path d="M5443 7306 c4 -10 7 -22 7 -27 0 -5 4 -9 9 -9 12 0 2 38 -12 47 -7 4
-8 0 -4 -11z"/>
<path d="M3721 7104 c0 -11 3 -14 6 -6 3 7 2 16 -1 19 -3 4 -6 -2 -5 -13z"/>
<path d="M3222 6743 c0 -21 -5 -58 -11 -83 -27 -124 -121 -654 -118 -664 3 -6
8 8 12 32 6 31 10 40 17 30 6 -9 7 -6 3 9 -9 33 5 119 17 102 6 -10 7 -7 3 9
-9 32 16 167 27 150 6 -8 7 -5 3 10 -9 32 16 167 27 150 6 -9 7 -5 3 9 -8 27
5 119 14 105 4 -6 7 8 7 31 0 23 4 66 8 95 6 34 5 52 -2 52 -5 0 -10 -17 -10
-37z"/>
<path d="M2982 5442 c-18 -97 -35 -188 -39 -201 -4 -16 -3 -22 5 -17 6 3 14
27 18 52 4 31 9 42 15 33 5 -8 6 3 3 26 -4 31 -3 37 6 25 9 -12 10 -11 5 7 -9
32 5 119 16 102 6 -9 7 -3 3 16 -3 17 -1 49 4 71 5 23 6 47 3 53 -4 6 -21 -69
-39 -167z"/>
<path d="M5100 4969 c0 -5 5 -7 10 -4 6 3 10 8 10 11 0 2 -4 4 -10 4 -5 0 -10
-5 -10 -11z"/>
<path d="M5224 4965 c-7 -18 3 -35 22 -35 8 0 14 -4 14 -10 0 -5 -8 -10 -17
-10 -13 0 -14 -3 -6 -11 15 -15 43 -4 43 16 0 8 -12 21 -27 27 -22 9 -24 12
-10 15 9 3 17 9 17 14 0 15 -30 10 -36 -6z"/>
<path d="M5060 4942 c0 -27 28 -92 40 -92 6 0 10 5 10 10 0 6 -4 10 -10 10 -5
0 -10 15 -10 34 0 18 -7 39 -15 46 -12 10 -15 9 -15 -8z"/>
<path d="M5157 4953 c-13 -12 -7 -60 8 -73 8 -7 22 -10 30 -6 22 8 19 25 -4
19 -11 -3 -21 2 -25 12 -8 21 0 35 20 35 8 0 14 5 14 10 0 11 -33 14 -43 3z"/>
<path d="M5111 4933 c0 -5 7 -24 15 -43 l14 -35 -5 34 c-3 18 -5 37 -5 42 0 5
-4 9 -10 9 -5 0 -10 -3 -9 -7z"/>
<path d="M4930 4909 c0 -25 28 -93 39 -97 14 -5 15 15 1 23 -5 3 -10 19 -10
34 0 16 -7 34 -15 41 -12 10 -15 10 -15 -1z"/>
<path d="M4997 4913 c-13 -12 -7 -70 7 -82 23 -19 60 4 52 32 -3 12 -6 30 -6
40 0 17 -39 25 -53 10z m39 -28 c4 -8 3 -23 0 -32 -6 -15 -8 -15 -23 -1 -16
17 -12 48 7 48 6 0 13 -7 16 -15z"/>
<path d="M4867 4904 c-4 -4 -7 -18 -7 -30 0 -17 7 -25 25 -30 14 -3 25 -13 25
-21 0 -10 -6 -13 -16 -9 -10 4 -14 1 -12 -6 3 -7 13 -13 24 -13 31 0 25 47 -8
63 -32 15 -38 37 -7 29 13 -3 19 -1 16 6 -4 14 -30 21 -40 11z"/>
<path d="M5600 4696 c0 -13 4 -27 9 -30 5 -4 7 4 3 16 -4 15 -2 19 8 13 8 -5
11 -3 8 5 -8 25 -28 22 -28 -4z"/>
<path d="M5130 4551 c0 -5 5 -13 10 -16 6 -3 10 -2 10 4 0 5 -4 13 -10 16 -5
3 -10 2 -10 -4z"/>
<path d="M5602 4213 c2 -14 9 -28 16 -29 7 -1 8 0 2 3 -5 2 -10 12 -10 20 0
13 2 13 17 2 15 -13 15 -12 4 9 -16 30 -33 28 -29 -5z"/>
<path d="M5930 3871 c0 -10 19 -25 25 -20 1 2 -3 10 -11 17 -8 7 -14 8 -14 3z"/>
<path d="M5180 3639 c0 -5 5 -7 10 -4 6 3 10 8 10 11 0 2 -4 4 -10 4 -5 0 -10
-5 -10 -11z"/>
<path d="M5943 3414 c-3 -8 1 -23 10 -32 15 -14 17 -14 23 1 8 21 -1 47 -16
47 -6 0 -13 -7 -17 -16z m27 -15 c0 -5 -4 -9 -10 -9 -5 0 -10 7 -10 16 0 8 5
12 10 9 6 -3 10 -10 10 -16z"/>
<path d="M7025 2960 c-13 -21 4 -60 26 -60 17 0 20 5 17 32 -3 33 -29 50 -43
28z"/>
<path d="M7535 2430 l-30 -8 27 -1 c15 0 30 4 33 9 3 6 5 9 3 9 -2 -1 -16 -5
-33 -9z"/>
<path d="M6845 2340 c-3 -6 1 -7 9 -4 18 7 21 14 7 14 -6 0 -13 -4 -16 -10z"/>
<path d="M4621 2313 c-19 -8 -85 -53 -78 -53 20 0 86 34 91 46 3 8 4 14 3 13
-1 0 -8 -3 -16 -6z"/>
<path d="M6666 2131 c-4 -5 3 -7 14 -4 23 6 26 13 6 13 -8 0 -17 -4 -20 -9z"/>
<path d="M6785 2090 c-4 -6 -16 -8 -28 -5 -20 5 -20 5 -3 -6 14 -9 21 -8 34 5
9 9 13 16 10 16 -4 0 -10 -5 -13 -10z"/>
<path d="M6526 1971 c-3 -4 6 -6 19 -3 14 2 25 6 25 8 0 8 -39 4 -44 -5z"/>
<path d="M6608 1933 c7 -3 16 -2 19 1 4 3 -2 6 -13 5 -11 0 -14 -3 -6 -6z"/>
<path d="M5 1830 c-7 -11 2 -30 14 -30 5 0 11 9 14 20 5 21 -16 29 -28 10z"/>
<path d="M5635 1835 c24 -8 114 -11 109 -3 -3 4 -31 8 -62 7 -31 0 -52 -2 -47
-4z"/>
<path d="M10839 1771 c-28 -22 -18 -41 11 -23 11 7 29 12 39 12 29 0 35 17 8
24 -31 8 -32 8 -58 -13z"/>
<path d="M11030 1720 c0 -5 5 -10 10 -10 6 0 10 5 10 10 0 6 -4 10 -10 10 -5
0 -10 -4 -10 -10z"/>
<path d="M6388 1702 c-12 -15 -11 -16 4 -3 10 7 28 11 40 8 13 -4 29 -2 37 2
8 6 -1 9 -27 9 -27 1 -45 -5 -54 -16z"/>
<path d="M2805 1699 c-10 -15 -2 -19 24 -12 17 4 19 8 9 14 -18 12 -26 11 -33
-2z"/>
<path d="M10968 1682 c-35 -16 -56 -51 -23 -38 8 3 15 1 15 -4 0 -6 -5 -10
-11 -10 -5 0 -7 -4 -4 -10 13 -20 71 -11 93 15 28 32 28 51 0 59 -28 7 -25 8
-70 -12z"/>
<path d="M2320 1662 c0 -6 -7 -17 -15 -26 -14 -14 -12 -17 24 -35 49 -26 109
-35 158 -26 56 10 19 26 -53 23 -54 -3 -59 -1 -71 23 -15 30 -43 57 -43 41z"/>
<path d="M6064 1528 l-19 -21 28 18 c15 9 36 15 47 12 11 -3 18 -1 14 4 -10
17 -51 9 -70 -13z"/>
<path d="M5968 1368 c5 -5 16 -8 23 -6 8 3 3 7 -10 11 -17 4 -21 3 -13 -5z"/>
<path d="M7865 1338 c-120 -44 -121 -45 -112 -55 8 -7 200 62 232 84 35 23 -5
14 -120 -29z"/>
<path d="M6350 1106 c7 -7 13 -7 20 0 6 6 3 10 -10 10 -13 0 -16 -4 -10 -10z"/>
<path d="M3610 575 c0 -8 7 -15 15 -15 8 0 15 -4 15 -10 0 -5 7 -10 16 -10 40
0 94 -24 94 -41 0 -10 13 -25 28 -33 25 -13 32 -13 73 6 24 11 60 21 79 22 24
1 36 6 38 18 3 15 0 15 -45 1 -26 -9 -67 -18 -90 -21 -43 -4 -43 -4 -43 29 -1
32 -2 33 -15 15 -12 -16 -16 -17 -29 -3 -8 8 -38 20 -66 27 -27 7 -50 16 -50
21 0 5 -4 9 -10 9 -5 0 -10 -7 -10 -15z"/>
<path d="M7404 305 c-33 -43 -24 -55 44 -55 50 0 60 15 40 57 -20 42 -51 41
-84 -2z"/>
</g>
</svg>
